<svg xmlns="http://www.w3.org/2000/svg" viewBox="0 0 500 372.61"><rect y="327.45" width="500" height="0.25" fill="#ebebeb"/><rect x="332.11" y="334.26" width="97.6" height="0.25" fill="#ebebeb"/><rect x="289" y="340.03" width="46.67" height="0.25" fill="#ebebeb"/><rect x="430.71" y="343.54" width="19.19" height="0.25" fill="#ebebeb"/><rect x="126.47" y="340.16" width="92.53" height="0.25" fill="#ebebeb"/><rect x="97.67" y="340.16" width="19.9" height="0.25" fill="#ebebeb"/><rect x="57.79" y="335.94" width="32.86" height="0.25" fill="#ebebeb"/><path d="M237,282.85H43.91a5.71,5.71,0,0,1-5.7-5.71V5.71A5.71,5.71,0,0,1,43.91,0H237a5.71,5.71,0,0,1,5.71,5.71V277.14A5.71,5.71,0,0,1,237,282.85ZM43.91.25a5.46,5.46,0,0,0-5.45,5.46V277.14a5.46,5.46,0,0,0,5.45,5.46H237a5.47,5.47,0,0,0,5.46-5.46V5.71A5.47,5.47,0,0,0,237,.25Z" fill="#ebebeb"/><path d="M453.31,282.85H260.21a5.72,5.72,0,0,1-5.71-5.71V5.71A5.72,5.72,0,0,1,260.21,0h193.1A5.71,5.71,0,0,1,459,5.71V277.14A5.71,5.71,0,0,1,453.31,282.85ZM260.21.25a5.47,5.47,0,0,0-5.46,5.46V277.14a5.47,5.47,0,0,0,5.46,5.46h193.1a5.47,5.47,0,0,0,5.46-5.46V5.71A5.47,5.47,0,0,0,453.31.25Z" fill="#ebebeb"/><polygon points="391.07 318.24 89.03 318.24 71.02 113.36 373.06 113.36 391.07 318.24" fill="#f0f0f0"/><polygon points="83.7 324.77 89.03 318.24 71.02 113.36 65.69 119.98 83.7 324.77" fill="#e0e0e0"/><path d="M93,310.46,76.43,121.73a3.41,3.41,0,0,1,3.39-3.7H365.68a3.4,3.4,0,0,1,3.39,3.11l16.59,188.73a3.4,3.4,0,0,1-3.39,3.7H96.41A3.4,3.4,0,0,1,93,310.46Z" fill="#fafafa"/><polygon points="131.49 318.24 85.98 318.24 82.76 327.45 128.27 327.45 131.49 318.24" fill="#e0e0e0"/><polygon points="131.49 318.24 430.71 318.24 427.49 327.45 128.27 327.45 131.49 318.24" fill="#f5f5f5"/><polygon points="254.7 318.24 312.06 318.24 311.44 324.27 254.09 324.27 254.7 318.24" fill="#e0e0e0"/><path d="M341.62,99.91h72.47c6,39.76-21.77,72.47-61.53,72.47a80.81,80.81,0,0,1-37.7-9.71Z" fill="#e0e0e0"/><path d="M341.62,99.91,379.81,44.4a90.15,90.15,0,0,1,22.86,24.88,82,82,0,0,1,11.42,30.63Z" fill="#ebebeb"/><path d="M341.62,99.91,330.67,27.44a78.24,78.24,0,0,1,25.45,4.37A87.33,87.33,0,0,1,379.81,44.4Z" fill="#e6e6e6"/><path d="M341.62,99.91l-26.76,62.76c-24.35-12.93-41.81-36.9-45.71-62.76-6-39.75,21.76-72.47,61.52-72.47Z" fill="#f0f0f0"/><path d="M252.15,229.24h64.29a62.4,62.4,0,0,1,.32,16.64,55.81,55.81,0,0,1-4.08,15.5Z" fill="#ebebeb"/><path d="M252.15,229.24l1.61-63.31a77.32,77.32,0,0,1,41.4,22c11.46,11.57,19,26.21,21.28,41.32Z" fill="#e0e0e0"/><path d="M252.15,229.24l-57.08,22a71.25,71.25,0,0,1-7.2-22C182.54,194,207.18,165,242.44,165a66.93,66.93,0,0,1,11.32,1Z" fill="#f0f0f0"/><path d="M252.15,229.24l60.53,32.14c-8.47,19.86-27.88,32.14-50.81,32.14-27,0-53.75-17-66.8-42.3Z" fill="#fff"/><ellipse cx="250" cy="361.29" rx="193.89" ry="11.32" fill="#f5f5f5"/><path d="M240.59,184.43H150.51A11.51,11.51,0,0,1,139.27,174l-4.51-55.38a9.47,9.47,0,0,1,9.55-10.4h90.07a11.52,11.52,0,0,1,11.24,10.4L250.13,174A9.45,9.45,0,0,1,240.59,184.43Z" fill="#fff"/><path d="M240.59,184.87H150.51a11.93,11.93,0,0,1-11.67-10.79l-4.51-55.39a9.9,9.9,0,0,1,10-10.86h90.07a11.93,11.93,0,0,1,11.67,10.79L250.56,174a9.9,9.9,0,0,1-10,10.86Zm-96.28-76.18a9.05,9.05,0,0,0-9.12,9.93L139.7,174a11.06,11.06,0,0,0,10.81,10h90.08a9,9,0,0,0,9.11-9.92l-4.51-55.39a11.07,11.07,0,0,0-10.81-10Z" fill="#fd7e14"/><path d="M216.14,168.26a27.89,27.89,0,0,1-13.24,8L201.41,172c11.09-3,18.6-13.37,17.6-25.66a28.9,28.9,0,0,0-9.31-18.78l2.87-3.13C225.57,136.46,227.18,156.24,216.14,168.26Z" fill="#e0e0e0"/><path d="M212.57,124.44l-2.87,3.13a28.72,28.72,0,0,0-19.42-7.78,24.35,24.35,0,0,0-18.14,7.78l-3.39-3.13a28.54,28.54,0,0,1,21.17-9.08A33.6,33.6,0,0,1,212.57,124.44Z" fill="#263238"/><path d="M202.9,176.28c-10.45,2.86-22.13-.2-30.58-8-13-12-14.61-31.8-3.57-43.82l3.39,3.13a24.51,24.51,0,0,0-6.25,18.78c1.19,14.66,14.05,26.56,28.72,26.56a26,26,0,0,0,6.8-.9Z" fill="#fd7e14"/><rect x="110.67" y="18.74" width="7.22" height="0.87" fill="#fd7e14"/><rect x="87.22" y="18.74" width="16.44" height="0.87" fill="#fd7e14"/><path d="M180.14,98.34H90.07A11.52,11.52,0,0,1,78.83,88L74.32,32.56a9.46,9.46,0,0,1,9.55-10.39h90.07a11.52,11.52,0,0,1,11.24,10.39L189.69,88A9.46,9.46,0,0,1,180.14,98.34Z" fill="#fff"/><path d="M180.14,98.77H90.07A11.93,11.93,0,0,1,78.4,88L73.89,32.6a9.9,9.9,0,0,1,10-10.86h90.07a11.93,11.93,0,0,1,11.67,10.79l4.51,55.38a9.9,9.9,0,0,1-10,10.86ZM83.87,22.6a9,9,0,0,0-9.12,9.93l4.51,55.38a11.07,11.07,0,0,0,10.81,10h90.07A9,9,0,0,0,189.26,88L184.75,32.6a11.07,11.07,0,0,0-10.81-10Z" fill="#fd7e14"/><polygon points="82.47 38.06 130.2 38.06 129.81 33.35 82.08 33.35 82.47 38.06" fill="#e0e0e0"/><polygon points="177.93 38.06 130.2 38.06 129.81 33.35 177.55 33.35 177.93 38.06" fill="#fd7e14"/><polygon points="83.47 50.34 97.08 50.34 96.7 45.62 83.08 45.62 83.47 50.34" fill="#e0e0e0"/><polygon points="178.93 50.34 97.08 50.34 96.7 45.62 178.55 45.62 178.93 50.34" fill="#fd7e14"/><polygon points="84.47 62.61 126.95 62.61 126.57 57.9 84.08 57.9 84.47 62.61" fill="#e0e0e0"/><polygon points="179.93 62.61 126.95 62.61 126.57 57.9 179.55 57.9 179.93 62.61" fill="#fd7e14"/><polygon points="85.47 74.89 157.98 74.89 157.59 70.17 85.08 70.17 85.47 74.89" fill="#e0e0e0"/><polygon points="180.93 74.89 157.98 74.89 157.59 70.17 180.54 70.17 180.93 74.89" fill="#fd7e14"/><polygon points="86.46 87.16 120 87.16 119.62 82.45 86.08 82.45 86.46 87.16" fill="#e0e0e0"/><polygon points="181.93 87.16 120 87.16 119.62 82.45 181.54 82.45 181.93 87.16" fill="#fd7e14"/><path d="M303.28,98.34H213.21A11.52,11.52,0,0,1,202,88l-4.51-55.39A9.46,9.46,0,0,1,207,22.17h90.08a11.52,11.52,0,0,1,11.24,10.39L312.83,88A9.47,9.47,0,0,1,303.28,98.34Z" fill="#fff"/><path d="M303.28,98.77H213.21A12,12,0,0,1,201.53,88L197,32.6a9.9,9.9,0,0,1,10-10.86h90.08a11.93,11.93,0,0,1,11.67,10.79l4.51,55.38a9.9,9.9,0,0,1-10,10.86ZM207,22.6a9,9,0,0,0-9.11,9.93l4.51,55.38a11.07,11.07,0,0,0,10.81,10h90.07A9.06,9.06,0,0,0,310,95a9.15,9.15,0,0,0,2.36-7L307.89,32.6a11.07,11.07,0,0,0-10.81-10Z" fill="#fd7e14"/><polygon points="258.13 87.16 256.54 87.16 252.16 33.35 253.75 33.35 258.13 87.16" fill="#e0e0e0"/><polygon points="260.53 64.8 250.5 64.8 248.78 43.77 258.82 43.77 260.53 64.8" fill="#fd7e14"/><polygon points="238.38 87.16 236.79 87.16 232.41 33.35 234 33.35 238.38 87.16" fill="#e0e0e0"/><polygon points="241.17 69.47 231.13 69.47 229.63 51.04 239.66 51.04 241.17 69.47" fill="#fd7e14"/><polygon points="218.64 87.16 217.05 87.16 212.67 33.35 214.26 33.35 218.64 87.16" fill="#e0e0e0"/><polygon points="220.19 54.31 210.16 54.31 209.13 41.65 219.16 41.65 220.19 54.31" fill="#263238"/><polygon points="277.87 87.16 276.28 87.16 271.9 33.35 273.49 33.35 277.87 87.16" fill="#e0e0e0"/><polygon points="281.24 76.74 271.21 76.74 268.53 43.77 278.56 43.77 281.24 76.74" fill="#263238"/><polygon points="297.62 87.16 296.02 87.16 291.64 33.35 293.23 33.35 297.62 87.16" fill="#e0e0e0"/><polygon points="301.31 80.69 291.28 80.69 289.13 54.29 299.16 54.29 301.31 80.69" fill="#fd7e14"/><path d="M206.89,269.82H116.81a11.53,11.53,0,0,1-11.24-10.39L101.07,204a9.45,9.45,0,0,1,9.54-10.39h90.08A11.52,11.52,0,0,1,211.93,204l4.51,55.39A9.47,9.47,0,0,1,206.89,269.82Z" fill="#fff"/><path d="M206.89,270.25H116.81a11.94,11.94,0,0,1-11.67-10.79l-4.51-55.38a9.9,9.9,0,0,1,10-10.87h90.08A12,12,0,0,1,212.36,204l4.51,55.38a9.9,9.9,0,0,1-10,10.86Zm-96.28-76.17A9,9,0,0,0,101.5,204L106,259.39a11.06,11.06,0,0,0,10.8,10h90.08a9,9,0,0,0,9.11-9.93l-4.5-55.38a11.06,11.06,0,0,0-10.81-10Z" fill="#fd7e14"/><polygon points="122.8 230.41 142.21 252.84 164.48 218.5 178.24 236.25 181.6 231.06 204.11 258.04 117.67 258 122.8 230.41" fill="#fd7e14"/><polygon points="187.61 231.8 178.59 251.12 149.81 205.43 136.26 234.45 131.91 227.55 117.68 258.04 204.1 257.99 187.61 231.8" fill="#e0e0e0"/><path d="M372.88,104.11c2.41,4.52,4.48,9,6.43,13.64a127.09,127.09,0,0,1,5,14.38c.35,1.25.65,2.52.94,3.81a13.53,13.53,0,0,1,.4,2.71,14.67,14.67,0,0,1-.15,2.71,26.12,26.12,0,0,1-3,8.28,55.46,55.46,0,0,1-9.35,12.45,2.83,2.83,0,0,1-4.54-3.27l.07-.13A99.32,99.32,0,0,0,374.44,146a20,20,0,0,0,1.23-5.71,4.91,4.91,0,0,0-.08-.94,1.41,1.41,0,0,0-.08-.3l-.19-.58c-.33-1.08-.67-2.16-1.07-3.24-1.52-4.35-3.39-8.71-5.34-13s-4-8.7-6.08-12.87l0-.08a5.67,5.67,0,0,1,10.09-5.18Z" fill="#407bff"/><path d="M369.75,158.26l-4.77,1.5,5.62,6.58a11,11,0,0,0,2.94-4.67,2.33,2.33,0,0,0-.9-2.5l-.8-.57A2.36,2.36,0,0,0,369.75,158.26Z" fill="#7f3e3b"/><polygon points="358.4 163.82 364.42 168.59 370.6 166.34 364.98 159.76 358.4 163.82" fill="#7f3e3b"/><path d="M337.85,70.66c-.12.59-.53,1-.92.93s-.6-.62-.48-1.21.53-1,.92-.93S338,70.07,337.85,70.66Z" fill="#263238"/><path d="M337.37,71.68a21.59,21.59,0,0,1-3.85,4.48,3.5,3.5,0,0,0,2.72,1.11Z" fill="#630f0f"/><path d="M340.68,67.82a.39.39,0,0,0,.25-.1.35.35,0,0,0,0-.5,3.51,3.51,0,0,0-3-1.17.35.35,0,0,0-.29.41.36.36,0,0,0,.41.29h0a2.78,2.78,0,0,1,2.37,1A.35.35,0,0,0,340.68,67.82Z" fill="#263238"/><path d="M354.28,81.43c-1.07,5.47-1.72,13.06,2.11,16.71,0,0-1.5,5.56-11.67,5.56-11.19,0-5.38-4.88-5.38-4.88,4.65-1.44,4.61-6.74,3.54-11Z" fill="#7f3e3b"/><path d="M337.37,98s1.64-3.87,3.3-4.53S353,91,355.39,92.56s4.1,6.49,4.1,6.49Z" fill="#407bff"/><path d="M348.59,354c-1,0-1.89-.14-2.2-.57a.66.66,0,0,1,0-.77.89.89,0,0,1,.57-.42c1.24-.34,3.86,1.15,4,1.22a.17.17,0,0,1,.08.18.18.18,0,0,1-.14.15A13.55,13.55,0,0,1,348.59,354Zm-1.19-1.46a1.76,1.76,0,0,0-.34,0,.55.55,0,0,0-.35.25c-.12.22-.08.33,0,.39.35.49,2.24.5,3.63.3A8.15,8.15,0,0,0,347.4,352.57Z" fill="#407bff"/><path d="M350.85,353.82l-.07,0c-.91-.4-2.7-2-2.56-2.87,0-.2.17-.44.66-.49a1.27,1.27,0,0,1,1,.3c1,.78,1.16,2.8,1.17,2.89a.21.21,0,0,1-.08.16A.17.17,0,0,1,350.85,353.82Zm-1.83-3h-.1c-.32,0-.34.16-.35.2-.08.51,1.13,1.78,2.06,2.33a4.19,4.19,0,0,0-1-2.3A.93.93,0,0,0,349,350.78Z" fill="#407bff"/><polygon points="359.08 353.64 351.6 353.64 350.85 336.31 358.33 336.31 359.08 353.64" fill="#7f3e3b"/><path d="M351.64,352.78h8.18a.66.66,0,0,1,.64.51l1.47,6.65a1.08,1.08,0,0,1-1.07,1.33c-2.95,0-7.21-.22-10.92-.22-4.33,0-4.86.23-9.94.23-3.07,0-3.92-3.1-2.64-3.38,5.86-1.28,7.42-1.42,12.48-4.54A3.46,3.46,0,0,1,351.64,352.78Z" fill="#263238"/><path d="M369.79,98.17c7,1.61,11.64,20.54,11.64,20.54l-11.71,8.8A22.35,22.35,0,0,1,361,114.59C358.62,105.21,362.62,96.53,369.79,98.17Z" fill="#263238"/><path d="M363.78,111.34c3.81,3.77,6.27,9.72,6.57,15.69l-.62.48a22.34,22.34,0,0,1-8.7-12.92c-.14-.56-.27-1.12-.37-1.67Z" opacity="0.2"/><rect x="344.44" y="136.07" width="61.2" height="45.51" transform="translate(-32.16 150.52) rotate(-21.78)" fill="#407bff"/><rect x="344.48" y="136.23" width="60.3" height="45.51" transform="translate(-32.25 150.38) rotate(-21.78)" fill="#fff" opacity="0.5"/><g opacity="0.5"><rect x="343.69" y="150.2" width="5.71" height="4.05" transform="translate(-31.74 139.47) rotate(-21.78)" fill="#407bff"/><rect x="352.44" y="146.7" width="5.71" height="4.05" transform="translate(-29.82 142.47) rotate(-21.78)" fill="#407bff"/><rect x="361.19" y="143.2" width="5.71" height="4.05" transform="translate(-27.9 145.47) rotate(-21.78)" fill="#407bff"/><rect x="369.95" y="139.71" width="5.71" height="4.05" transform="translate(-25.98 148.47) rotate(-21.78)" fill="#407bff"/><rect x="378.7" y="136.21" width="5.71" height="4.05" transform="translate(-24.05 151.47) rotate(-21.78)" fill="#407bff"/><rect x="387.45" y="132.71" width="5.71" height="4.05" transform="translate(-22.13 154.47) rotate(-21.78)" fill="#407bff"/><rect x="346.17" y="156.4" width="5.71" height="4.05" transform="translate(-33.87 140.83) rotate(-21.78)" fill="#407bff"/><rect x="354.92" y="152.91" width="5.71" height="4.05" transform="translate(-31.95 143.83) rotate(-21.78)" fill="#407bff"/><rect x="363.67" y="149.41" width="5.71" height="4.05" transform="translate(-30.02 146.83) rotate(-21.78)" fill="#407bff"/><rect x="372.43" y="145.91" width="5.71" height="4.05" transform="translate(-28.1 149.83) rotate(-21.78)" fill="#407bff"/><rect x="381.18" y="142.41" width="5.71" height="4.05" transform="translate(-26.18 152.83) rotate(-21.78)" fill="#407bff"/><rect x="389.93" y="138.91" width="5.71" height="4.05" transform="translate(-24.25 155.83) rotate(-21.78)" fill="#407bff"/><rect x="348.65" y="162.61" width="5.71" height="4.05" transform="translate(-36 142.2) rotate(-21.78)" fill="#407bff"/><rect x="357.4" y="159.11" width="5.71" height="4.05" transform="translate(-34.07 145.2) rotate(-21.78)" fill="#407bff"/><rect x="366.15" y="155.61" width="5.71" height="4.05" transform="translate(-32.15 148.2) rotate(-21.78)" fill="#407bff"/><rect x="374.91" y="152.11" width="5.71" height="4.05" transform="translate(-30.23 151.19) rotate(-21.78)" fill="#407bff"/><rect x="383.66" y="148.62" width="5.71" height="4.05" transform="translate(-28.3 154.2) rotate(-21.78)" fill="#407bff"/><rect x="392.41" y="145.12" width="5.71" height="4.05" transform="translate(-26.38 157.2) rotate(-21.78)" fill="#407bff"/><rect x="351.13" y="168.81" width="5.71" height="4.05" transform="translate(-38.12 143.56) rotate(-21.78)" fill="#407bff"/><rect x="359.88" y="165.32" width="5.71" height="4.05" transform="translate(-36.2 146.56) rotate(-21.78)" fill="#407bff"/><rect x="368.63" y="161.82" width="5.71" height="4.05" transform="translate(-34.27 149.56) rotate(-21.78)" fill="#407bff"/><rect x="377.39" y="158.32" width="5.71" height="4.05" transform="translate(-32.35 152.56) rotate(-21.78)" fill="#407bff"/><rect x="386.14" y="154.82" width="5.71" height="4.05" transform="translate(-30.43 155.56) rotate(-21.78)" fill="#407bff"/><rect x="394.89" y="151.32" width="5.71" height="4.05" transform="translate(-28.51 158.56) rotate(-21.78)" fill="#407bff"/><rect x="353.61" y="175.02" width="5.71" height="4.05" transform="translate(-40.25 144.92) rotate(-21.78)" fill="#407bff"/><rect x="362.36" y="171.52" width="5.71" height="4.05" transform="translate(-38.32 147.92) rotate(-21.78)" fill="#407bff"/><rect x="371.11" y="168.02" width="5.71" height="4.05" transform="translate(-36.4 150.92) rotate(-21.78)" fill="#407bff"/><rect x="379.86" y="164.52" width="5.71" height="4.05" transform="translate(-34.48 153.93) rotate(-21.78)" fill="#407bff"/><rect x="388.62" y="161.03" width="5.71" height="4.05" transform="translate(-32.55 156.93) rotate(-21.78)" fill="#407bff"/><rect x="397.37" y="157.53" width="5.71" height="4.05" transform="translate(-30.63 159.92) rotate(-21.78)" fill="#407bff"/><rect x="356.09" y="181.22" width="5.71" height="4.05" transform="translate(-42.37 146.29) rotate(-21.78)" fill="#407bff"/><rect x="364.84" y="177.72" width="5.71" height="4.05" transform="translate(-40.45 149.29) rotate(-21.78)" fill="#407bff"/><rect x="373.59" y="174.23" width="5.71" height="4.05" transform="translate(-38.53 152.29) rotate(-21.78)" fill="#407bff"/><rect x="382.34" y="170.73" width="5.71" height="4.05" transform="translate(-36.6 155.28) rotate(-21.78)" fill="#407bff"/><rect x="391.1" y="167.23" width="5.71" height="4.05" transform="translate(-34.68 158.28) rotate(-21.78)" fill="#407bff"/><rect x="399.85" y="163.73" width="5.71" height="4.05" transform="translate(-32.76 161.28) rotate(-21.78)" fill="#407bff"/></g><path d="M390.31,139.75a1.59,1.59,0,1,1,2.06.88A1.58,1.58,0,0,1,390.31,139.75Z" fill="#fff"/><path d="M389,161.86a1.58,1.58,0,1,1,2.06.88A1.58,1.58,0,0,1,389,161.86Z" fill="#fff"/><path d="M369,162.65a1.58,1.58,0,0,1,.88-2.06,1.59,1.59,0,1,1-.88,2.06Z" fill="#fff"/><path d="M356.46,182.06a1.59,1.59,0,1,1,2.06.88A1.58,1.58,0,0,1,356.46,182.06Z" fill="#fff"/><path d="M357.94,182.06a.53.53,0,0,1-.32-.1.58.58,0,0,1-.18-.81L370,161.74a.56.56,0,0,1,.47-.26l19.45-.78,1.29-21.58a.59.59,0,0,1,1.17.07l-1.31,22.12a.59.59,0,0,1-.57.55l-19.68.78-12.38,19.15A.59.59,0,0,1,357.94,182.06Z" fill="#fff"/><path d="M325.46,105.68c-1.53,8.08-2.49,24.69,2,57.57h40c-.72-5.7-3.59-36.12,2.34-65.08a103.53,103.53,0,0,0-13.4-1.69,146.32,146.32,0,0,0-17,0c-1.88.17-3.72.44-5.36.73A10.61,10.61,0,0,0,325.46,105.68Z" fill="#263238"/><path d="M331.76,118.13l-7.52.6c-.27,9.73.4,23.93,3.18,44.52h.36C332.29,148.42,338.27,127.22,331.76,118.13Z" opacity="0.2"/><polygon points="350.85 336.31 351.23 345.25 358.72 345.25 358.34 336.31 350.85 336.31" opacity="0.2"/><path d="M357.84,73.42c-1.92,7.17-2.69,11.47-7.11,14.45-6.66,4.49-15-.66-15.22-8.26-.23-6.85,2.95-17.43,10.65-18.88A10.14,10.14,0,0,1,357.84,73.42Z" fill="#7f3e3b"/><path d="M341,73.46l-3.89,1,3.62-9.39a10.61,10.61,0,0,1-.33-7.24,2.12,2.12,0,0,1,2-1.46c8.06-.16,16.49,4.37,20.73,7.79a2.09,2.09,0,0,1,.47,2.72A24,24,0,0,1,360,71.13c-.08,2.63-4.37,14.5-6.74,15.83s-6.92.8-8.13-1.37S339.81,80.55,341,73.46Z" fill="#263238"/><path d="M344.64,73.61a8.41,8.41,0,0,1-2.9,4.55c-1.91,1.5-3.4.12-3.32-2.09.07-2,1.15-5.16,3.28-5.81S345.14,71.45,344.64,73.61Z" fill="#7f3e3b"/><path d="M413.08,351.44c0-1,.12-1.89.55-2.2a.67.67,0,0,1,.78,0,.86.86,0,0,1,.41.56c.35,1.24-1.12,3.87-1.19,4a.17.17,0,0,1-.18.09.18.18,0,0,1-.14-.14A13.35,13.35,0,0,1,413.08,351.44Zm1.45-1.19a1.29,1.29,0,0,0,0-.35.49.49,0,0,0-.25-.34c-.22-.13-.33-.08-.39,0-.48.35-.48,2.24-.27,3.63A8.19,8.19,0,0,0,414.53,350.25Z" fill="#407bff"/><path d="M413.3,353.7a.19.19,0,0,1,0-.07c.4-.91,2-2.71,2.85-2.57.2,0,.45.17.5.65a1.29,1.29,0,0,1-.3,1c-.77.95-2.79,1.17-2.87,1.18a.19.19,0,0,1-.16-.07A.17.17,0,0,1,413.3,353.7Zm3-1.84s0-.07,0-.11c0-.32-.16-.34-.2-.34-.51-.08-1.77,1.14-2.32,2.07a4.16,4.16,0,0,0,2.3-1A1,1,0,0,0,416.33,351.86Z" fill="#407bff"/><polygon points="413.42 353.75 406.11 354.27 402.01 336.8 409.31 336.28 413.42 353.75" fill="#7f3e3b"/><path d="M413.39,352.07l-8.14-.72a.65.65,0,0,0-.68.46l-2.06,6.49a1.09,1.09,0,0,0,1,1.42c2.94.21,7.2.42,10.89.74,4.31.39,1.52.38,6.58.82,3.06.28,4.19-2.74,2.93-3.14-5.72-1.79-6.76-3-8.73-5.33A2.57,2.57,0,0,0,413.39,352.07Z" fill="#263238"/><polygon points="402.01 336.8 404.13 345.81 411.43 345.29 409.32 336.28 402.01 336.8" opacity="0.2"/><path d="M341.62,163.25s17.21,57.49,23.75,78.83C372.52,265.46,399.74,343,399.74,343l13.2-2.9s-18.65-66.62-26.38-99.21c-5.94-25-19.11-77.63-19.11-77.63Z" fill="#407bff"/><path d="M397.42,338.91c-.06,0,1.3,5.15,1.3,5.15l15.87-1.7-.07-4.72Z" fill="#263238"/><path d="M351.15,189.9c9.53,1.25,13.32,34.45,14.75,53.94-.18-.62-.37-1.2-.54-1.76C361.8,230.43,355.05,208,349.65,190A3.24,3.24,0,0,1,351.15,189.9Z" opacity="0.3"/><path d="M327.42,163.25s5.77,56,8.26,78.79c2.58,23.71,12.3,101.48,12.3,101.48h12.68s-1.54-76.35-2.05-99.67c-.56-25.42-4.88-80.6-4.88-80.6Z" fill="#407bff"/><path d="M346,338.47c-.06,0,.71,5.26.71,5.26h15.42l.42-4.7Z" fill="#263238"/><path d="M273.27,215.93a22.44,22.44,0,1,0,7-31A22.43,22.43,0,0,0,273.27,215.93Zm35-22A18.89,18.89,0,1,1,282.17,188,18.9,18.9,0,0,1,308.23,193.89Z" fill="#263238"/><path d="M309.13,207.79a17.31,17.31,0,1,1-13.06-20.71A17.31,17.31,0,0,1,309.13,207.79Z" fill="#407bff" opacity="0.2"/><path d="M311.84,189.28l2.11,3.33a1.09,1.09,0,0,1-.34,1.5h0a1.09,1.09,0,0,1-1.5-.34l-2.1-3.34a1.08,1.08,0,0,1,.34-1.49h0A1.07,1.07,0,0,1,311.84,189.28Z" fill="#263238"/><path d="M325.45,179.79q-3.65,2.49-7.22,5.09c-2.39,1.74-4.75,3.51-7,5.39a1.49,1.49,0,0,0,1.58,2.5c2.68-1.25,5.3-2.62,7.9-4s5.16-2.85,7.7-4.33q3.25-1.89,6.46-3.85a1.31,1.31,0,0,0,.42-1.8L333.51,176a1.3,1.3,0,0,0-1.8-.4C329.61,177,327.52,178.38,325.45,179.79Z" fill="#263238"/><path d="M336.6,108.48q-1.83,9-3.9,18l-4.14,17.85C327.21,150.1,326.06,156,325,162l-3.14,18v0a2.82,2.82,0,0,1-5.6-.39c-.22-6.25-.12-12.43.23-18.65a182.62,182.62,0,0,1,2-18.68c1-6.12,2.07-12.17,3.25-18.21s2.43-12.06,3.82-18a5.67,5.67,0,0,1,11.08,2.42Z" fill="#407bff"/><path d="M321,178.37a2.1,2.1,0,0,0-2-.58l-1.62.38a2.07,2.07,0,0,0-1.57,1.74l-.47,3.61a4.57,4.57,0,0,0,.62,3l2.24,3.7a2.52,2.52,0,0,0,2.52.94l2.33-.5a2.51,2.51,0,0,0,1.87-3.23l-.61-1.88A11.59,11.59,0,0,0,321,178.37Z" fill="#7f3e3b"/><path d="M344.39,105c3.64,9.65-8.94,23.42-8.94,23.42l-15.93-5.27s1.22-13.17,6.75-20.6C333.09,93.39,341.62,97.66,344.39,105Z" fill="#263238"/></svg>